<svg width="20" height="20" viewBox="0 0 20 20" fill="none" xmlns="http://www.w3.org/2000/svg">
<path d="M6 5.5H4.2002C3.08009 5.5 2.51962 5.5 2.0918 5.74524C1.71547 5.96095 1.40973 6.30491 1.21799 6.72827C1 7.20957 1 7.8401 1 9.10022V15.4002C1 16.6603 1 17.2901 1.21799 17.7714C1.40973 18.1947 1.71547 18.5393 2.0918 18.755C2.5192 19 3.07899 19 4.19691 19H15.8031C16.921 19 17.48 19 17.9074 18.755C18.2837 18.5393 18.5905 18.1947 18.7822 17.7714C19 17.2905 19 16.6617 19 15.404V9.09652C19 7.83887 19 7.2091 18.7822 6.72827C18.5905 6.30491 18.2837 5.96095 17.9074 5.74524C17.4796 5.5 16.9203 5.5 15.8002 5.5H14M6 5.5H14M6 5.5C6 3.01472 7.79086 1 10 1C12.2091 1 14 3.01472 14 5.5" stroke="#8491A5" stroke-width="2" stroke-linecap="round" stroke-linejoin="round"/>
</svg>
