<svg width="20" height="18" viewBox="0 0 20 18" fill="none" xmlns="http://www.w3.org/2000/svg">
<path d="M17.5 17.4934C18.1631 17.4934 18.799 17.23 19.2678 16.7612C19.7366 16.2924 20 15.6564 20 14.9933V7.85053C20 7.0549 19.6838 6.29192 19.1213 5.72936C18.5587 5.16658 17.7958 4.85066 16.9999 4.85066H3.42216C3.05391 4.85088 2.69994 4.70821 2.43452 4.45252C2.16932 4.19706 2.01373 3.84851 2.00014 3.48047C2.0135 3.08754 2.17724 2.71476 2.45762 2.43913C2.73799 2.16374 3.11346 2.00634 3.50666 2H16.9997C17.2649 2 17.5195 2.10531 17.707 2.29283C17.8945 2.48036 17.9998 2.73469 17.9998 2.99987V3.33754C17.9998 3.69492 18.1903 4.02486 18.4999 4.20361C18.8093 4.38229 19.1904 4.38229 19.4998 4.20361C19.8091 4.02492 19.9998 3.69495 19.9998 3.33754V2.99987C19.9998 2.20424 19.6837 1.44126 19.1211 0.878706C18.5586 0.315919 17.7956 0 16.9997 0H3.422C2.51495 0.00158528 1.64552 0.362811 1.00417 1.00417C0.362823 1.64553 0.0017973 2.515 0 3.422V13.4933C0 14.5541 0.421467 15.5716 1.17155 16.3217C1.92163 17.0717 2.93917 17.4932 3.99998 17.4932L17.5 17.4934ZM18 11.8245L14.5454 11.8248C14.2709 11.8211 14.0489 11.5994 14.0455 11.3247V10.7402C14.0455 10.4641 14.2693 10.2403 14.5454 10.2403H18.0063L18 11.8245ZM1.99998 13.4934V6.53902C2.44545 6.74579 2.93104 6.85223 3.42199 6.85065H16.9997C17.2649 6.85065 17.5195 6.95596 17.707 7.14348C17.8945 7.331 17.9998 7.58533 17.9998 7.85051V8.23371H14.5452C13.8816 8.23552 13.2457 8.50027 12.7771 8.9702C12.3085 9.43991 12.0454 10.0765 12.0454 10.7401V11.3441C12.0522 12.0031 12.3183 12.6332 12.7861 13.0974C13.254 13.5617 13.8862 13.8229 14.5452 13.8247H18.0061V14.9935L18.0064 14.9932C18.0064 15.2695 17.7824 15.4933 17.5063 15.4933H3.99989C3.46949 15.4933 2.96082 15.2827 2.58577 14.9076C2.21049 14.5326 1.9999 14.0237 1.9999 13.4933L1.99998 13.4934Z" fill="#8491A5"/>
</svg>
