<svg width="20" height="19" viewBox="0 0 20 19" fill="none" xmlns="http://www.w3.org/2000/svg">
<path d="M17 0C18.6569 0 20 1.34315 20 3V13C20 14.6569 18.6569 16 17 16H5.33333L2 18.5C1.17596 19.118 0 18.5301 0 17.5V3C0 1.34315 1.34315 0 3 0H17ZM17 2H3C2.44772 2 2 2.44772 2 3V16L4.13333 14.4C4.47953 14.1404 4.90059 14 5.33333 14H17C17.5523 14 18 13.5523 18 13V3C18 2.44772 17.5523 2 17 2ZM9 9C9.5523 9 10 9.4477 10 10C10 10.5129 9.61397 10.9355 9.11662 10.9933L9 11H6C5.44772 11 5 10.5523 5 10C5 9.48715 5.38604 9.06449 5.88338 9.00673L6 9H9ZM14 5C14.5523 5 15 5.44772 15 6C15 6.55228 14.5523 7 14 7H6C5.44772 7 5 6.55228 5 6C5 5.44772 5.44772 5 6 5H14Z" fill="#8491A5"/>
</svg>
