<svg width="20" height="22" viewBox="0 0 20 22" fill="none" xmlns="http://www.w3.org/2000/svg">
<path d="M14.4444 0C15.616 0 16.5757 0.90653 16.6606 2.05638L16.6667 2.22222V7.77778H18.3333C19.1996 7.77778 19.9116 8.43879 19.9924 9.28394L20 9.44444V17.7778C20 19.553 18.6124 21.0041 16.8625 21.1055L16.6667 21.1111H2.22222C1.05071 21.1111 0.0909276 20.2046 0.0060953 19.0547L0 18.8889V2.22222C0 1.05071 0.90653 0.0909276 2.05638 0.0060953L2.22222 0H14.4444ZM17.7778 10H16.6667V18.8889C17.2803 18.8889 17.7778 18.3914 17.7778 17.7778V10ZM14.4444 2.22222H2.22222V18.8889H14.4444V2.22222ZM8.88889 11.1111C9.50256 11.1111 10 11.6086 10 12.2222C10 12.7921 9.57108 13.2617 9.01847 13.3259L8.88889 13.3333H5.55556C4.94191 13.3333 4.44444 12.8359 4.44444 12.2222C4.44444 11.6524 4.87338 11.1828 5.42598 11.1186L5.55556 11.1111H8.88889ZM11.1111 5.55556C11.7248 5.55556 12.2222 6.05302 12.2222 6.66667C12.2222 7.28031 11.7248 7.77778 11.1111 7.77778H5.55556C4.94191 7.77778 4.44444 7.28031 4.44444 6.66667C4.44444 6.05302 4.94191 5.55556 5.55556 5.55556H11.1111Z" fill="#8491A5"/>
</svg>
