<svg width="16" height="20" viewBox="0 0 16 20" fill="none" xmlns="http://www.w3.org/2000/svg">
<path d="M11 0C11.6834 0 12.2866 0.342703 12.6474 0.865612L12.7324 1H14C15.0544 1 15.9182 1.81588 15.9945 2.85074L16 3V15C16 17.6887 13.8777 19.8818 11.2169 19.9954L11 20H2C0.945638 20 0.0818346 19.1841 0.00548553 18.1493L0 18V3C0 1.94564 0.815877 1.08183 1.85074 1.00549L2 1H3.26756C3.58677 0.448185 4.16206 0.0630342 4.83093 0.00704551L5 0H11ZM3 3H2V18H11C12.6569 18 14 16.6569 14 15V3H13C13 4.10457 12.1046 5 11 5H5C3.89543 5 3 4.10457 3 3ZM8 12C8.5523 12 9 12.4477 9 13C9 13.5128 8.61397 13.9355 8.11662 13.9933L8 14H5C4.44772 14 4 13.5523 4 13C4 12.4872 4.38604 12.0645 4.88338 12.0067L5 12H8ZM11 8C11.5523 8 12 8.4477 12 9C12 9.5523 11.5523 10 11 10H5C4.44772 10 4 9.5523 4 9C4 8.4477 4.44772 8 5 8H11ZM11 2H5V3H11V2Z" fill="#8491A5"/>
</svg>
