<svg width="17" height="20" viewBox="0 0 17 20" fill="none" xmlns="http://www.w3.org/2000/svg">
<path d="M10.985 9.84243C12.3405 9.06987 13.2836 7.73592 13.5602 6.20044C13.8368 4.66495 13.4183 3.08589 12.4176 1.88889C11.4169 0.691764 9.93688 0 8.37672 0C6.81656 0 5.33651 0.691719 4.33582 1.88889C3.33512 3.08589 2.91664 4.6649 3.19324 6.20044C3.46983 7.73592 4.41294 9.06987 5.76843 9.84243C4.0963 10.3984 2.64076 11.4642 1.60598 12.8903C0.571334 14.3165 0.00958419 16.031 0 17.7931V17.9937V17.9935C0 18.5257 0.211335 19.036 0.587636 19.4124C0.963941 19.7887 1.47426 20 2.00646 20H14.7472C15.2794 20 15.7896 19.7887 16.166 19.4124C16.5423 19.0361 16.7536 18.5257 16.7536 17.9935V17.7931C16.744 16.031 16.1822 14.3165 15.1476 12.8903C14.1129 11.4642 12.6573 10.3984 10.9852 9.84243H10.985ZM8.37676 2.04251C9.24292 2.04251 10.0736 2.38715 10.6852 3.00034C11.2968 3.61369 11.6393 4.44505 11.637 5.31121C11.6348 6.17737 11.288 7.00712 10.6733 7.61715C10.0583 8.22736 9.22613 8.56764 8.35997 8.56325C7.49381 8.5587 6.66491 8.20986 6.05645 7.59355C5.44799 6.97702 5.10963 6.14396 5.1163 5.2778C5.12295 4.41742 5.46934 3.59448 6.0801 2.98848C6.69085 2.38248 7.51638 2.04237 8.37676 2.04255V2.04251ZM14.7471 17.9935H2.00641V17.793C2.00641 15.517 3.22051 13.4139 5.19145 12.2762C7.16257 11.1382 9.59078 11.1382 11.5618 12.2762C13.5327 13.4141 14.7468 15.5171 14.7468 17.793L14.7471 17.9935Z" fill="#8491A5"/>
</svg>
