<svg width="20" height="19" viewBox="0 0 20 19" fill="none" xmlns="http://www.w3.org/2000/svg">
<path d="M8.77212 0.421294C9.44917 -0.105323 10.3803 -0.138237 11.0891 0.322553L11.2278 0.421294L19.6115 6.94193C20.3332 7.50331 19.9816 8.6337 19.1131 8.72693L18.9969 8.73308H17.9999V16.733C17.9999 17.7874 17.184 18.6512 16.1492 18.7275L15.9999 18.733H4.00001C2.94566 18.733 2.08187 17.9171 2.00552 16.8823L2.00003 16.733V8.73308H1.00296C0.0896016 8.73308 -0.328523 7.6255 0.300392 7.01818L0.388407 6.94193L8.77212 0.421294ZM10 1.99999L3.62543 6.95795C3.85396 7.14313 4.00001 7.42606 4.00001 7.74309V16.733H6.99999V11.733C6.99999 10.0762 8.34312 8.73308 10 8.73308C11.6568 8.73308 13 10.0762 13 11.733V16.733H15.9999V7.74309C15.9999 7.42604 16.1459 7.14312 16.3744 6.95795L10 1.99999ZM10 10.7331C9.44771 10.7331 9.00002 11.1808 9.00002 11.733V16.733H11V11.733C11 11.1808 10.5522 10.7331 10 10.7331Z" fill="#8491A5"/>
</svg>
