<svg width="250" height="84" xmlns="http://www.w3.org/2000/svg">
 <metadata id="metadata15">image/svg+xml</metadata>

 <g>
  <title>background</title>
  <rect fill="none" id="canvas_background" height="86" width="252" y="-1" x="-1"/>
 </g>
 <g>
  <title>Layer 1</title>
  <g id="Layer1000">
   <path fill="#1b1918" fill-rule="evenodd" stroke="#1b1918" stroke-width="0.5669" d="m18.666347,1.721802l25.068,0l-27.9613,27.9613c-3.1618,3.1618 -5.4765,6.5686 -6.9448,10.2198l0,-28.343c0,-5.4111 4.427,-9.8381 9.8381,-9.8381zm37.9876,0l22.9799,0c2.8198,0 7.3899,-0.085 9.8517,-0.0873c0.2075,4.0322 -0.0136,7.3353 -0.0136,9.9254l0,22.9802l-7.0651,-7.0654l-34.4211,34.4211c-2.7921,2.7921 -5.8004,4.0995 -9.0242,3.9219c-3.2238,-0.1778 -6.2826,-1.7136 -9.1763,-4.6075c-2.8939,-2.8937 -4.4297,-5.9524 -4.6075,-9.1763c-0.1776,-3.2238 1.13,-6.2318 3.9221,-9.024l34.4211,-34.421l-6.867,-6.8671zm32.818,45.3413l0,25.4643c0,5.4111 -4.427,9.8381 -9.8381,9.8381l-29.0089,0c3.8254,-1.4627 7.388,-3.8436 10.6874,-7.1431l28.1596,-28.1593zm-58.4161,35.3024l-12.3895,0c-5.4111,0 -9.8381,-4.427 -9.8381,-9.8381l0,-12.1789c1.7487,4.5975 4.698,8.9718 8.8487,13.1225c4.2203,4.2203 8.6799,7.1849 13.3789,8.8945z" id="path4"/>
   <path fill="#1b1918" fill-rule="evenodd" d="m111.614547,48.492602l0,-18.976l7.3468,0l0,18.976c0,1.5392 0.4689,2.7286 1.4066,3.5682c0.9374,0.8399 2.2039,1.2598 3.7992,1.2598c1.5954,0 2.8619,-0.4199 3.7993,-1.2598c0.9377,-0.8396 1.4066,-2.029 1.4066,-3.5682l0,-18.976l7.3468,0l0,18.976c0,3.4143 -1.1475,6.1923 -3.4424,8.3333c-2.2952,2.1413 -5.3178,3.2116 -9.0683,3.2116c-3.7783,0 -6.8221,-1.0703 -9.131,-3.2116c-2.3091,-2.141 -3.4636,-4.919 -3.4636,-8.3333zm41.5624,11.0412l0,-30.0172l7.4307,0l8.3126,14.0219c0.3359,0.5879 0.7138,1.3085 1.1336,2.1622c0.4198,0.8536 0.7554,1.5602 1.0074,2.1201l0.3779,0.8396l0.0839,0c-0.2239,-2.1552 -0.3359,-3.8625 -0.3359,-5.1219l0,-14.0219l7.3471,0l0,30.0172l-7.389,0l-8.3543,-13.9802c-0.3359,-0.5876 -0.7138,-1.3084 -1.1336,-2.162c-0.4198,-0.8535 -0.7557,-1.5604 -1.0077,-2.12l-0.3779,-0.8396l-0.0839,0c0.224,2.1549 0.3359,3.8622 0.3359,5.1216l0,13.9802l-7.3468,0zm42.1501,0l0,-30.0172l7.3468,0l0,30.0172l-7.3468,0zm29.3876,0l0,-23.72l-9.1103,0l0,-6.2972l25.5674,0l0,6.2972l-9.1103,0l0,23.72l-7.3468,0z" id="path6"/>
  </g>
 </g>
</svg>